<svg xmlns="http://www.w3.org/2000/svg" viewBox="0 0 273.26 250.44"><defs><style>.cls-1{fill:#fff;}</style></defs><g id="Layer_2" data-name="Layer 2"><g id="Layer_2-2" data-name="Layer 2"><path class="cls-1" d="M126.39,250.44c-2.89,0-5.8-.06-8.75-.18l-.86,0C91,248,66.45,239.56,45.93,225.94c-19.44-12.9-34-29.8-41.14-47.59-8.39-21.06-5.67-42,7.44-57.52C24.68,106.13,50,92.17,101.6,95.45c-3.28-16.26-8.87-33.61-18.35-48.21A19.18,19.18,0,0,1,88.45,21a18.31,18.31,0,0,1,25.7,5.31,145.38,145.38,0,0,1,10.51,19.37c8.42-17.45,19.49-30.15,33-37.84,20.21-11.49,44.1-10.3,65.53,3.26C238.61,20.84,251.49,36,260.46,55a138.43,138.43,0,0,1,12.65,65.29c-.9,26.27-12.42,64.32-42.08,92.49a130.8,130.8,0,0,1-46.63,28.37C167,247.32,147.55,250.44,126.39,250.44Zm-6.88-38c36.66,1.36,65.68-7.86,86.26-27.41,21.41-20.33,29.7-48.35,30.29-66.17a1.93,1.93,0,0,0,0-.24c1.21-26.54-8.33-60.12-32.39-75.35-6.93-4.39-17.42-8.36-28-2.36-14,7.93-24.09,29.57-29.15,60.71q11.26,2.27,23.72,5.38a19,19,0,0,1,13.58,22.9,18.53,18.53,0,0,1-22.44,13.86q-9.4-2.37-18.26-4.22c.06,7.78-.26,12.72-.31,13.47a18.53,18.53,0,0,1-37-1.32q0-7.08.22-13.87c0-1.28-.06-2.65-.11-4.09a177.62,177.62,0,0,0-32.2-.35c-21.78,2-30.3,8.49-33.45,12.2-5.78,6.83-2.28,15.61-1.14,18.49,4.2,10.54,14,21.51,27,30.11C76.83,201.29,94.75,210.2,119.51,212.45Z"/></g></g></svg>