<?xml version="1.0" encoding="UTF-8" standalone="no"?>
<!DOCTYPE svg PUBLIC "-//W3C//DTD SVG 1.1//EN" "http://www.w3.org/Graphics/SVG/1.1/DTD/svg11.dtd">
<svg width="100%" height="100%" viewBox="0 0 64 64" version="1.1" xmlns="http://www.w3.org/2000/svg" xmlns:xlink="http://www.w3.org/1999/xlink" xml:space="preserve" xmlns:serif="http://www.serif.com/" style="fill-rule:evenodd;clip-rule:evenodd;stroke-linejoin:round;stroke-miterlimit:2;">
    <g transform="matrix(0.994572,0,0,0.97245,0.850059,1.37276)">
        <rect x="-0.855" y="-1.412" width="64.349" height="65.813" style="fill:rgb(0,214,50);"/>
    </g>
    <path d="M42.47,23.8C42.97,24.3 43.8,24.3 44.27,23.8L46.77,21.2C47.3,20.7 47.27,19.8 46.71,19.26C44.746,17.549 42.461,16.244 39.99,15.42L40.78,11.62C40.95,10.79 40.33,10.01 39.5,10.01L34.66,10.01C34.039,10.017 33.502,10.461 33.38,11.07L32.68,14.45C26.24,14.78 20.78,18.05 20.78,24.75C20.78,30.55 25.29,33.04 30.06,34.75C34.57,36.47 36.96,37.11 36.96,39.53C36.96,42.02 34.58,43.48 31.06,43.48C27.86,43.48 24.5,42.41 21.9,39.8C21.656,39.556 21.325,39.418 20.98,39.418C20.635,39.418 20.304,39.556 20.06,39.8L17.36,42.5C16.835,43.027 16.835,43.893 17.36,44.42C19.46,46.49 22.12,47.99 25.152,48.82L24.412,52.39C24.242,53.22 24.852,53.99 25.682,54L30.532,54.04C31.161,54.043 31.708,53.596 31.832,52.98L32.532,49.59C40.28,49.07 45,44.8 45,38.57C45,32.83 40.3,30.41 34.6,28.44C31.34,27.23 28.52,26.4 28.52,23.91C28.52,21.49 31.15,20.53 33.79,20.53C37.15,20.53 40.38,21.92 42.49,23.82L42.47,23.8Z" style="fill:white;fill-rule:nonzero;"/>
</svg>
