<?xml version="1.0" encoding="UTF-8" standalone="no"?>
<!DOCTYPE svg PUBLIC "-//W3C//DTD SVG 1.1//EN" "http://www.w3.org/Graphics/SVG/1.1/DTD/svg11.dtd">
<svg width="100%" height="100%" viewBox="0 0 1024 1024" version="1.1" xmlns="http://www.w3.org/2000/svg" xmlns:xlink="http://www.w3.org/1999/xlink" xml:space="preserve" xmlns:serif="http://www.serif.com/" style="fill-rule:evenodd;clip-rule:evenodd;stroke-linejoin:round;stroke-miterlimit:2;">
    <g id="Layer-3" serif:id="Layer 3" transform="matrix(5.55556,0,0,5.55556,0,0)">
        <rect x="0" y="0" width="1000" height="1000" style="fill:white;"/>
    </g>
    <g transform="matrix(0.725319,0,0,0.725319,140.637,140.637)">
        <path d="M1024,512C1024,229.42 794.58,0 512,0C229.42,0 0,229.42 0,512C0,794.58 229.42,1024 512,1024C794.58,1024 1024,794.58 1024,512Z" style="fill:rgb(0,82,255);"/>
        <g transform="matrix(1,0,0,1,0.5285,0)">
            <path d="M512.147,692C412.697,692 332.146,611.45 332.146,512C332.146,412.55 412.697,332 512.147,332C601.247,332 675.197,396.95 689.447,482L870.797,482C855.497,297.2 700.846,152 512.147,152C313.396,152 152.146,313.25 152.146,512C152.146,710.75 313.396,872 512.147,872C700.846,872 855.497,726.8 870.797,542L689.297,542C675.047,627.05 601.247,692 512.147,692Z" style="fill:white;fill-rule:nonzero;"/>
        </g>
    </g>
</svg>
