<svg xmlns="http://www.w3.org/2000/svg" viewBox="0 0 2250 550"><defs><style>.cls-1{fill:none;}</style></defs><g id="Layer_2" data-name="Layer 2"><g id="Layer_3" data-name="Layer 3"><rect class="cls-1" width="2250" height="550"/><path d="M569,202.73h64.4c45.36,0,79.09,25.92,79.09,72s-33.7,72.17-78.87,72.17H569Zm64.4,106.08c21.82,0,34.78-16,34.78-34.14,0-19.45-11.22-33.92-34.56-33.92h-21v68.06Z"/><path d="M810.91,328.26h-55.3L750,346.84H702.66l53.15-144.13h54.88l53.15,144.13H816.51ZM766.83,292h32.86l-16.43-50.77Z"/><path d="M918.77,269.49v77.35H875.13V202.71h45l50.12,72.6v-72.6h43.64V346.84H971.92Z"/><path d="M1030.57,202.73h43.63V346.86h-43.63Z"/><path d="M1089.66,202.73H1199V239h-65.69v16.85h64.18v36.3h-64.18v18.36H1199v36.3H1089.66Z"/><path d="M1214.09,202.73h43.64v106.1h54.66v38h-98.32V202.73Z"/><path d="M1466.06,328.26h-55.31l-5.62,18.58H1357.8L1411,202.71h54.88L1519,346.84h-47.32ZM1422,292h32.85l-16.43-50.77Z"/><path d="M1513.78,202.73h44.3v83.41c0,13.82,7.14,24.85,25.08,24.85,17.71,0,24.85-11,24.85-24.85V202.73h44.3v84.7c0,35.87-20.52,62-69.15,62s-69.36-26.14-69.36-61.79V202.73Z"/><path d="M1680,294.14a67.14,67.14,0,0,0,46.46,18.58c8.2,0,16-2.8,16-8.42s-6-8.43-20.31-11c-23.77-4.31-60.07-9.93-60.07-46,0-24.41,20.32-46.68,59.87-46.68,23.56,0,44.72,6.69,61.15,20.09l-23.34,30.9c-12.54-9.52-28.74-14.25-40.19-14.25-10.81,0-13.18,3.89-13.18,7.56,0,5.62,5.82,7.56,21.18,10.16,23.76,4.11,59,11,59,44.3,0,31.76-23.56,50.12-62.21,50.12-30.68,0-51.64-9.07-67-22.89Z"/><path d="M1830.29,240.75h-38.67v-38h120.79v38H1874V346.84h-43.63V240.75Z"/><path d="M1927,202.73h43.64V346.86H1927Z"/><path d="M2029.93,269.49v77.35h-43.64V202.71h45l50.13,72.6v-72.6H2125V346.84h-41.92Z"/><path d="M279.48,425c-3.52,0-7.09-.06-10.69-.2l-1.06-.06c-31.58-2.7-61.51-12.76-86.59-29.06-23.76-15.46-41.63-35.7-50.28-57-10.26-25.24-6.94-50.35,9.09-68.91,15.21-17.6,46.2-34.34,109.23-30.4-4-19.48-10.83-40.26-22.42-57.76a22.67,22.67,0,1,1,37.77-25.08,172.16,172.16,0,0,1,12.85,23.2c10.29-20.9,23.82-36.12,40.35-45.32,24.7-13.76,53.9-12.34,80.1,3.9,18.82,11.66,34.55,29.84,45.52,52.56,11.39,23.58,16.73,50.64,15.47,78.22-1.1,31.47-15.19,77.07-51.44,110.81a160.21,160.21,0,0,1-57,34C329.16,421.26,305.36,425,279.48,425Zm-8.39-45.5c44.8,1.64,80.27-9.42,105.43-32.82,26.16-24.36,36.3-57.93,37-79.29a1.51,1.51,0,0,1,0-.3c1.48-31.78-10.17-72-39.58-90.26-8.48-5.26-21.29-10-34.18-2.82-17,9.5-29.43,35.42-35.63,72.72q13.79,2.7,29,6.44a22.68,22.68,0,0,1-10.83,44.05c-7.68-1.88-15.11-3.59-22.33-5.07.06,9.33-.32,15.25-.38,16.15a22.66,22.66,0,0,1-45.26-1.58c0-5.66.08-11.18.26-16.61,0-1.54-.06-3.18-.12-4.9a221.63,221.63,0,0,0-39.37-.42c-26.62,2.36-37,10.19-40.89,14.63-7.07,8.18-2.8,18.7-1.4,22.16,5.14,12.62,17.15,25.76,33,36.08C218.91,366.14,240.81,376.8,271.09,379.5Z"/></g></g></svg>